<?xml version="1.0"?>
<svg xmlns="http://www.w3.org/2000/svg" xmlns:xlink="http://www.w3.org/1999/xlink" xmlns:svgjs="http://svgjs.com/svgjs" version="1.1" width="512" height="512" x="0" y="0" viewBox="0 0 417.81 417.81" style="enable-background:new 0 0 512 512" xml:space="preserve"><g>
<g xmlns="http://www.w3.org/2000/svg">
	<path d="M208.904,47.283c-89.115,0-161.616,72.501-161.616,161.617s72.501,161.617,161.616,161.617   c89.116,0,161.617-72.501,161.617-161.617S298.021,47.283,208.904,47.283z M311.551,201.4c-0.782-27.3-5.828-53.395-14.619-76.296   c6.974-4.547,13.636-9.653,19.922-15.307c22.414,24.395,36.694,56.377,38.477,91.603H311.551z M201.404,266.845   c-23.814,1.084-46.719,7.319-67.408,18.165c-7.604-20.633-11.99-44.054-12.733-68.61h80.142V266.845z M201.404,281.86v73.108   c-19.973-2.875-38.735-17.184-53.477-41.034c-2.933-4.745-5.623-9.78-8.1-15.032C158.689,288.803,179.62,282.953,201.404,281.86z    M135.169,321.82c5.258,8.507,11.017,15.969,17.173,22.342c-14.974-6.285-28.688-14.99-40.661-25.619   c4.847-4.302,9.936-8.249,15.231-11.834C129.449,311.973,132.203,317.02,135.169,321.82z M290.897,306.708   c5.295,3.586,10.384,7.533,15.229,11.836c-11.972,10.628-25.686,19.333-40.66,25.618c6.157-6.373,11.916-13.835,17.174-22.342   C285.607,317.02,288.361,311.972,290.897,306.708z M269.882,313.933c-14.741,23.85-33.503,38.159-53.478,41.034V281.86   c21.787,1.093,42.719,6.942,61.578,17.04C275.505,304.152,272.815,309.188,269.882,313.933z M216.404,266.845V216.4h80.143   c-0.743,24.555-5.129,47.975-12.732,68.608C263.126,274.162,240.221,267.927,216.404,266.845z M216.404,201.4v-50.438   c23.817-1.083,46.724-7.317,67.412-18.164c7.602,20.631,11.988,44.049,12.73,68.602H216.404z M282.641,95.98   c-5.258-8.507-11.017-15.969-17.174-22.342c14.975,6.286,28.69,14.992,40.664,25.621c-4.846,4.304-9.935,8.251-15.231,11.838   C288.363,105.831,285.608,100.781,282.641,95.98z M277.985,118.905c-18.86,10.099-39.792,15.949-61.581,17.042V62.832   c19.974,2.875,38.736,17.184,53.478,41.034C272.816,108.613,275.507,113.651,277.985,118.905z M201.404,62.846v73.1   c-21.792-1.094-42.731-6.948-61.597-17.053C154.834,86.791,177.128,66.361,201.404,62.846z M126.916,111.099   c-5.298-3.587-10.389-7.535-15.238-11.84c11.995-10.649,25.738-19.366,40.745-25.655   C142.691,83.615,134.048,96.252,126.916,111.099z M100.954,109.797c6.292,5.657,12.96,10.767,19.94,15.315   c-1.115,2.912-2.184,5.884-3.189,8.929c-1.299,3.933,0.838,8.174,4.771,9.473c3.938,1.3,8.175-0.838,9.474-4.771   c0.665-2.014,1.364-3.983,2.079-5.931c20.681,10.836,43.574,17.065,67.376,18.148V201.4h-80.13   c0.116-3.798,0.309-7.587,0.599-11.324c0.32-4.129-2.768-7.737-6.897-8.058c-4.123-0.315-7.737,2.768-8.058,6.897   c-0.32,4.12-0.529,8.298-0.649,12.484H62.478C64.261,166.174,78.541,134.192,100.954,109.797z M62.478,216.4h43.781   c0.782,27.303,5.829,53.4,14.622,76.303c-6.974,4.546-13.636,9.651-19.923,15.303C78.542,283.61,64.262,251.627,62.478,216.4z    M316.851,308.007c-6.286-5.653-12.947-10.759-19.921-15.305c8.792-22.903,13.839-49,14.621-76.302h43.781   C353.548,251.628,339.267,283.611,316.851,308.007z" fill="#2fa624" data-original="#000000" style=""/>
	<path d="M112.158,165.088c2.571,6.109,11.504,6.025,13.916-0.171c2.485-6.384-4.594-12.513-10.558-9.292   C112.201,157.415,110.683,161.6,112.158,165.088C112.348,165.538,111.968,164.638,112.158,165.088z" fill="#2fa624" data-original="#000000" style=""/>
	<path d="M201.978,10.368c1.186,2.956,4.307,4.849,7.472,4.607c3.029-0.232,5.658-2.299,6.586-5.19   c2.061-6.418-5.166-12.214-10.991-8.721C201.914,2.94,200.555,6.991,201.978,10.368C202.158,10.818,201.788,9.918,201.978,10.368z" fill="#2fa624" data-original="#000000" style=""/>
	<path d="M379.826,88.762c-2.385-3.386-7.062-4.201-10.45-1.814c-3.388,2.385-4.199,7.063-1.815,10.45   c23.061,32.75,35.249,71.307,35.249,111.501c0,106.916-86.987,193.9-193.909,193.9c-106.917,0-193.9-86.983-193.9-193.9   c0-47.227,17.174-92.729,48.358-128.124c30.908-35.082,73.312-57.821,119.399-64.03c4.105-0.553,6.985-4.329,6.432-8.434   c-0.552-4.106-4.342-6.983-8.434-6.431C131.088,8.57,85.398,33.068,52.104,70.859C18.504,108.995,0,158.018,0,208.899   c0,115.188,93.712,208.9,208.9,208.9c115.193,0,208.909-93.712,208.909-208.9C417.81,165.596,404.675,124.053,379.826,88.762z" fill="#2fa624" data-original="#000000" style=""/>
	<path d="M341.548,88.919c17.412,0,31.578-14.166,31.578-31.578s-14.166-31.578-31.578-31.578S309.97,39.929,309.97,57.341   S324.136,88.919,341.548,88.919z M341.548,40.764c9.142,0,16.578,7.437,16.578,16.578s-7.437,16.578-16.578,16.578   s-16.578-7.437-16.578-16.578S332.406,40.764,341.548,40.764z" fill="#2fa624" data-original="#000000" style=""/>
</g>
<g xmlns="http://www.w3.org/2000/svg">
</g>
<g xmlns="http://www.w3.org/2000/svg">
</g>
<g xmlns="http://www.w3.org/2000/svg">
</g>
<g xmlns="http://www.w3.org/2000/svg">
</g>
<g xmlns="http://www.w3.org/2000/svg">
</g>
<g xmlns="http://www.w3.org/2000/svg">
</g>
<g xmlns="http://www.w3.org/2000/svg">
</g>
<g xmlns="http://www.w3.org/2000/svg">
</g>
<g xmlns="http://www.w3.org/2000/svg">
</g>
<g xmlns="http://www.w3.org/2000/svg">
</g>
<g xmlns="http://www.w3.org/2000/svg">
</g>
<g xmlns="http://www.w3.org/2000/svg">
</g>
<g xmlns="http://www.w3.org/2000/svg">
</g>
<g xmlns="http://www.w3.org/2000/svg">
</g>
<g xmlns="http://www.w3.org/2000/svg">
</g>
</g></svg>
