<svg id="b7d8d657-bdb0-4cab-bef3-dbc27e5f057f" xmlns="http://www.w3.org/2000/svg" viewBox="0 0 4161.88 2710.59"><defs><style>.cls-1{fill:#f0f8fa;}.cls-2{fill:#d0cde1;}.cls-3{fill:#ceecea;}.cls-4{fill:#3eb4b8;}.cls-5{fill:#3f3d56;}.cls-6{fill:#1a748c;}.cls-7{fill:#2f2e41;}.cls-8{fill:#ffb8b8;}.cls-9{fill:#575a89;}</style></defs><title>admin_</title><path class="cls-1" d="M4285.31,2211.29c-18,0-35.21,8.3-51.27,23.39-43.7-149.76-111.34-246-187.34-246s-143.64,96.24-187.33,246c-16.07-15.09-33.31-23.39-51.27-23.39-86.34,0-156.33,189.36-156.33,423h789.86C4441.63,2400.65,4371.64,2211.29,4285.31,2211.29Z" transform="translate(-347.59 -5.82)"/><path class="cls-2" d="M1948.62,1972a89.8,89.8,0,0,0-51.27,17.15c-43.7-109.82-111.34-180.4-187.34-180.4s-143.64,70.58-187.33,180.4a89.83,89.83,0,0,0-51.27-17.15c-86.34,0-156.33,138.87-156.33,310.17H2105C2105,2110.82,2035,1972,1948.62,1972Z" transform="translate(-347.59 -5.82)"/><path class="cls-3" d="M4509.47,2716.41H354.53c3.74-321.06,932.45-581,2077.47-581S4505.73,2395.35,4509.47,2716.41Z" transform="translate(-347.59 -5.82)"/><ellipse class="cls-4" cx="531.42" cy="942.81" rx="531.42" ry="505.41"/><path class="cls-5" d="M896.15,2395.58h-30V1007.45a455.78,455.78,0,0,1,15-115.88h0a455.78,455.78,0,0,1,15,115.88Z" transform="translate(-347.59 -5.82)"/><path class="cls-5" d="M882.84,1378.46,867,1354.21l222-130.82a98.29,98.29,0,0,1,51.33-13.47h0a91.51,91.51,0,0,1-35.52,37.72Z" transform="translate(-347.59 -5.82)"/><path class="cls-5" d="M872.38,1246.62l15.8-24.25-152.75-90a59.31,59.31,0,0,0-40.6-7.15h0a54.38,54.38,0,0,0,24.8,31.4Z" transform="translate(-347.59 -5.82)"/><path class="cls-5" d="M872.38,1801l15.8-24.26-152.75-90a59.31,59.31,0,0,0-40.6-7.15h0a54.35,54.35,0,0,0,24.8,31.4Z" transform="translate(-347.59 -5.82)"/><ellipse class="cls-4" cx="3349.43" cy="949.94" rx="510.12" ry="485.16"/><path class="cls-5" d="M3680.56,2344.72h28.8V1012.23A437.1,437.1,0,0,0,3695,901h0a437.55,437.55,0,0,0-14.4,111.24Z" transform="translate(-347.59 -5.82)"/><path class="cls-5" d="M3693.35,1368.36l15.16-23.28-213.07-125.57a94.27,94.27,0,0,0-49.27-12.93h0a87.88,87.88,0,0,0,34.1,36.21Z" transform="translate(-347.59 -5.82)"/><path class="cls-5" d="M3703.38,1241.81l-15.17-23.28,146.63-86.42a57,57,0,0,1,39-6.86h0a52.22,52.22,0,0,1-23.81,30.14Z" transform="translate(-347.59 -5.82)"/><path class="cls-5" d="M3703.38,1773.92l-15.17-23.28,146.63-86.42a57,57,0,0,1,39-6.86h0A52.22,52.22,0,0,1,3850,1687.5Z" transform="translate(-347.59 -5.82)"/><path class="cls-2" d="M957.6,2667.71a34.64,34.64,0,0,0-13.35,2.69c-11.38-17.24-29-28.33-48.79-28.33s-37.4,11.09-48.78,28.33a34.64,34.64,0,0,0-13.35-2.69c-22.49,0-40.71,21.8-40.71,48.7H998.31C998.31,2689.51,980.09,2667.71,957.6,2667.71Z" transform="translate(-347.59 -5.82)"/><path class="cls-2" d="M2232.91,2634.38a23.16,23.16,0,0,0-13.36,4.54c-11.38-29-29-47.71-48.78-47.71s-37.41,18.67-48.79,47.71a23.11,23.11,0,0,0-13.35-4.54c-22.48,0-40.71,36.73-40.71,82h205.7C2273.62,2671.11,2255.39,2634.38,2232.91,2634.38Z" transform="translate(-347.59 -5.82)"/><path class="cls-6" d="M4006,2634.38a23.13,23.13,0,0,0-13.35,4.54c-11.38-29-29-47.71-48.79-47.71s-37.4,18.67-48.78,47.71a23.15,23.15,0,0,0-13.35-4.54c-22.49,0-40.71,36.73-40.71,82H4046.7C4046.7,2671.11,4028.47,2634.38,4006,2634.38Z" transform="translate(-347.59 -5.82)"/><polygon class="cls-7" points="2556.21 1886.12 2549.68 1915.64 2541.51 1945.16 2515.37 2296.3 2605.22 2302.51 2646.06 1918.75 2639.53 1898.55 2556.21 1886.12"/><path class="cls-7" d="M2827,2254l-37.57,54.37s-104.56,80.8-29.41,85.46S2863,2345.62,2863,2345.62s26.14-7.76,29.41-15.53-6.54-76.13-6.54-76.13Z" transform="translate(-347.59 -5.82)"/><path class="cls-7" d="M2869.49,2295.91s-37.57,90.11-32.67,105.65,13.07,15.53,11.44,29.52-6.54,46.61,55.54,48.16,32.67-77.68,32.67-77.68l-8.16-105.65Z" transform="translate(-347.59 -5.82)"/><path class="cls-7" d="M2755.14,1629.37s-22.87,37.29-19.6,60.59,50.64,273.45,50.64,273.45l37.57,304.53,83.32-6.22L2874.4,1980.5l8.16-223.73,14.71,164.69,96.38,3.11L3050.83,1690s-42.48-65.25-50.64-69.91S2755.14,1629.37,2755.14,1629.37Z" transform="translate(-347.59 -5.82)"/><ellipse class="cls-8" cx="2521.09" cy="1085.19" rx="70.25" ry="66.81"/><polygon class="cls-8" points="2500.67 1127.91 2510.47 1216.47 2618.29 1200.94 2559.48 1096.84 2500.67 1127.91"/><path class="cls-2" d="M2957.71,1180.35s-55.54,38.84-109.45,17.09l-81.69,197.32v247s122.53,34.18,191.14-6.22c0,0,49-9.32,57.18-7.76s-29.41-421.06-29.41-421.06Z" transform="translate(-347.59 -5.82)"/><path class="cls-9" d="M2907.07,1189.67l37.57,51.27a59.25,59.25,0,0,1,6.54,42c-4.9,24.86-9.81,349.59,35.94,362s75.14,10.87,75.14,10.87-40.84-186.44-26.13-219.07l45.74-195.77L2961,1175.69s-7.56-29.52-20.12-13.21A114.94,114.94,0,0,1,2907.07,1189.67Z" transform="translate(-347.59 -5.82)"/><path class="cls-9" d="M2797.61,1478.66l55.81-298.31-55.81,28s-63.71,24.86-76.78,54.38-65.34,170.9-65.34,170.9,13.07,85.46,62.07,49.72,37.58-52.82,37.58-52.82-42.48,164.69-35.94,169.35S2729,1648,2729,1648l50.64-9.32Z" transform="translate(-347.59 -5.82)"/><path class="cls-8" d="M2733.9,1312.41l21.24-29.52s48-91.66,82.83-60.59-64.86,102.54-64.86,102.54Z" transform="translate(-347.59 -5.82)"/><polygon class="cls-8" points="2673.84 1628.21 2660.76 1644.16 2693.44 1684.14 2708.14 1656.17 2673.84 1628.21"/><path class="cls-7" d="M2840.51,1035.67c-7.2.07-13.51,4.31-19.43,8.22s-12.63,7.79-19.78,7a21.22,21.22,0,0,1-15.52-11.26,57.64,57.64,0,0,1-5.44-18.52l8.15,2.73-6.6-7.13,70.17-20.28c21.23-6.14,45.23-12.05,64.68-1.89a61.93,61.93,0,0,1,23.5,24.36,121.62,121.62,0,0,1-1.87,125c-10.76-.87-17.78-11.59-19.52-21.73s0-20.64-2.2-30.71-10.23-20.37-21-20.06l-5.68,11.53c3.64-7.38-18-25.39-23.12-28.74a70.6,70.6,0,0,1-12.59-8.72C2849.77,1041.09,2848.65,1035.59,2840.51,1035.67Z" transform="translate(-347.59 -5.82)"/><path class="cls-9" d="M2740.44,1295.32l39.2,23.31L2740.44,1474s-62.08,73-85,0c-19.15-61.13,53.28-145.11,77.39-170.86C2737.57,1298.13,2740.44,1295.32,2740.44,1295.32Z" transform="translate(-347.59 -5.82)"/><path class="cls-9" d="M3044.29,1237.84h37.58s32.67,60.59,35.94,93.22,3.27,161.58,3.27,161.58l-63.72,180.23-49-34.18,40.85-107.2s-4.91-23.31,0-34.19-14.71-66.8-18-69.91S3044.29,1237.84,3044.29,1237.84Z" transform="translate(-347.59 -5.82)"/><rect class="cls-5" x="1809.04" y="472.27" width="442.06" height="37.46"/><rect class="cls-5" x="1809.04" y="610.28" width="442.06" height="37.46"/><rect class="cls-5" x="1809.04" y="733.91" width="442.06" height="37.46"/><polygon class="cls-5" points="1091.36 851.9 1308.18 641.78 1553.3 641.78 1553.3 633.96 1304.75 633.96 1303.54 635.12 1085.5 846.4 1091.36 851.9"/><ellipse class="cls-4" cx="1669.97" cy="502.5" rx="48.37" ry="46"/><ellipse class="cls-4" cx="1669.97" cy="640.51" rx="48.37" ry="46"/><ellipse class="cls-4" cx="1669.97" cy="764.14" rx="48.37" ry="46"/><path class="cls-5" d="M1990.35,496.82c0-27,23-48.88,51.39-48.88s51.4,21.89,51.4,48.88-23,48.88-51.4,48.88h0C2013.37,545.67,1990.38,523.8,1990.35,496.82Zm6.05,0c0,23.82,20.3,43.13,45.34,43.13s45.35-19.31,45.35-43.13-20.3-43.13-45.35-43.13-45.31,19.32-45.34,43.13Z" transform="translate(-347.59 -5.82)"/><path class="cls-5" d="M1990.35,634.83c0-27,23-48.88,51.39-48.88s51.4,21.89,51.4,48.88-23,48.88-51.4,48.88h0C2013.37,683.68,1990.38,661.81,1990.35,634.83Zm6.05,0c0,23.82,20.3,43.13,45.34,43.13s45.35-19.31,45.35-43.13-20.3-43.13-45.35-43.13h0c-25,0-45.31,19.32-45.34,43.13Z" transform="translate(-347.59 -5.82)"/><path class="cls-5" d="M1990.35,758.47c0-27,23-48.88,51.39-48.88s51.4,21.88,51.4,48.88-23,48.87-51.4,48.87h0C2013.37,807.31,1990.38,785.45,1990.35,758.47Zm6.05,0c0,23.81,20.3,43.12,45.34,43.12s45.35-19.31,45.35-43.12-20.3-43.13-45.35-43.13-45.31,19.32-45.34,43.13Z" transform="translate(-347.59 -5.82)"/><rect class="cls-5" x="2206.21" y="30.15" width="442.06" height="37.46"/><rect class="cls-5" x="2206.21" y="168.16" width="442.06" height="37.46"/><rect class="cls-5" x="2206.21" y="291.79" width="442.06" height="37.46"/><polygon class="cls-5" points="3324.81 448.91 3149.13 199.66 2904.01 199.66 2904.01 191.84 3152.56 191.84 3153.77 193 3330.67 443.41 3324.81 448.91"/><ellipse class="cls-4" cx="2787.34" cy="60.38" rx="48.37" ry="46"/><ellipse class="cls-4" cx="2787.34" cy="198.39" rx="48.37" ry="46"/><ellipse class="cls-4" cx="2787.34" cy="322.02" rx="48.37" ry="46"/><path class="cls-5" d="M3110.74,103.58c-28.39,0-51.4-21.88-51.4-48.88s23-48.88,51.4-48.88,51.39,21.89,51.39,48.88h0C3162.1,81.68,3139.11,103.55,3110.74,103.58Zm0-92c-25,0-45.35,19.31-45.35,43.13s20.3,43.13,45.35,43.13,45.35-19.31,45.35-43.13S3135.77,11.6,3110.74,11.57Z" transform="translate(-347.59 -5.82)"/><path class="cls-5" d="M3110.74,241.59c-28.39,0-51.4-21.88-51.4-48.88s23-48.88,51.4-48.88,51.39,21.89,51.39,48.88h0C3162.1,219.7,3139.11,241.56,3110.74,241.59Zm0-92c-25,0-45.35,19.31-45.35,43.13s20.3,43.13,45.35,43.13,45.35-19.31,45.35-43.13h0C3156.06,168.9,3135.77,149.61,3110.74,149.58Z" transform="translate(-347.59 -5.82)"/><path class="cls-5" d="M3110.74,365.23c-28.39,0-51.4-21.89-51.4-48.88s23-48.88,51.4-48.88,51.39,21.88,51.39,48.88h0C3162.1,343.33,3139.11,365.2,3110.74,365.23Zm0-92c-25,0-45.35,19.31-45.35,43.13s20.3,43.13,45.35,43.13,45.35-19.31,45.35-43.13S3135.77,273.25,3110.74,273.22Z" transform="translate(-347.59 -5.82)"/><rect class="cls-5" x="1869.44" y="1475.71" width="308.74" height="26.17"/><rect class="cls-5" x="1869.44" y="1572.1" width="308.74" height="26.17"/><rect class="cls-5" x="1869.44" y="1658.45" width="308.74" height="26.17"/><polygon class="cls-5" points="1368.19 1740.86 1519.63 1594.11 1690.83 1594.11 1690.83 1588.64 1517.23 1588.64 1516.39 1589.45 1364.11 1737.02 1368.19 1740.86"/><ellipse class="cls-4" cx="1772.31" cy="1496.83" rx="33.78" ry="32.13"/><ellipse class="cls-4" cx="1772.31" cy="1593.22" rx="33.78" ry="32.13"/><ellipse class="cls-4" cx="1772.31" cy="1679.57" rx="33.78" ry="32.13"/><path class="cls-5" d="M2100.9,1494.62c0-18.85,16.07-34.14,35.89-34.14s35.9,15.29,35.9,34.14-16.07,34.14-35.9,34.14S2100.92,1513.47,2100.9,1494.62Zm4.22,0c0,16.64,14.18,30.12,31.67,30.12s31.68-13.48,31.68-30.12-14.18-30.12-31.68-30.12S2105.14,1478,2105.12,1494.62Z" transform="translate(-347.59 -5.82)"/><path class="cls-5" d="M2100.9,1591c0-18.85,16.07-34.14,35.89-34.14s35.9,15.29,35.9,34.14-16.07,34.14-35.9,34.14S2100.92,1609.85,2100.9,1591Zm4.22,0c0,16.64,14.18,30.12,31.67,30.12s31.68-13.48,31.68-30.12-14.18-30.12-31.68-30.12S2105.14,1574.38,2105.12,1591Z" transform="translate(-347.59 -5.82)"/><path class="cls-5" d="M2100.9,1677.36c0-18.86,16.07-34.14,35.89-34.14s35.9,15.28,35.9,34.14-16.07,34.14-35.9,34.14S2100.92,1696.2,2100.9,1677.36Zm4.22,0c0,16.63,14.18,30.12,31.67,30.12s31.68-13.49,31.68-30.12-14.18-30.12-31.68-30.12S2105.14,1660.73,2105.12,1677.36Z" transform="translate(-347.59 -5.82)"/></svg>